<mxfile host="app.diagrams.net" modified="2024-06-30T02:14:37.745Z" agent="Mozilla/5.0 (Windows NT 10.0; Win64; x64) AppleWebKit/537.36 (KHTML, like Gecko) Chrome/123.0.0.0 Safari/537.36 OPR/109.0.0.0" etag="NwrQ3p_0geEmLZronCBU" version="24.6.4" type="github">
  <diagram name="Página-1" id="-tSPPNyy636rjLcldGfB">
    <mxGraphModel dx="1009" dy="573" grid="1" gridSize="10" guides="1" tooltips="1" connect="1" arrows="1" fold="1" page="1" pageScale="1" pageWidth="827" pageHeight="1169" math="0" shadow="0">
      <root>
        <mxCell id="0" />
        <mxCell id="1" parent="0" />
        <mxCell id="DddSFmSaEvy10IUkVocP-1" value="Buscar información acerca del método iterativo de Newton-Raphson" style="rounded=0;whiteSpace=wrap;html=1;" vertex="1" parent="1">
          <mxGeometry x="360" y="40" width="120" height="60" as="geometry" />
        </mxCell>
        <mxCell id="DddSFmSaEvy10IUkVocP-5" value="" style="edgeStyle=orthogonalEdgeStyle;rounded=0;orthogonalLoop=1;jettySize=auto;html=1;" edge="1" parent="1" source="DddSFmSaEvy10IUkVocP-3" target="DddSFmSaEvy10IUkVocP-4">
          <mxGeometry relative="1" as="geometry" />
        </mxCell>
        <mxCell id="DddSFmSaEvy10IUkVocP-3" value="Realizar demostración del método" style="rounded=0;whiteSpace=wrap;html=1;" vertex="1" parent="1">
          <mxGeometry x="360" y="160" width="120" height="60" as="geometry" />
        </mxCell>
        <mxCell id="DddSFmSaEvy10IUkVocP-7" value="" style="edgeStyle=orthogonalEdgeStyle;rounded=0;orthogonalLoop=1;jettySize=auto;html=1;" edge="1" parent="1" source="DddSFmSaEvy10IUkVocP-4" target="DddSFmSaEvy10IUkVocP-6">
          <mxGeometry relative="1" as="geometry" />
        </mxCell>
        <mxCell id="DddSFmSaEvy10IUkVocP-4" value="Crear diagrama de flujo sobre el procedimiento de resolución de problemas con este método" style="whiteSpace=wrap;html=1;rounded=0;" vertex="1" parent="1">
          <mxGeometry x="345" y="300" width="150" height="90" as="geometry" />
        </mxCell>
        <mxCell id="DddSFmSaEvy10IUkVocP-9" value="" style="edgeStyle=orthogonalEdgeStyle;rounded=0;orthogonalLoop=1;jettySize=auto;html=1;" edge="1" parent="1" source="DddSFmSaEvy10IUkVocP-6" target="DddSFmSaEvy10IUkVocP-8">
          <mxGeometry relative="1" as="geometry">
            <Array as="points">
              <mxPoint x="560" y="528" />
              <mxPoint x="560" y="480" />
            </Array>
          </mxGeometry>
        </mxCell>
        <mxCell id="DddSFmSaEvy10IUkVocP-16" value="" style="edgeStyle=orthogonalEdgeStyle;rounded=0;orthogonalLoop=1;jettySize=auto;html=1;" edge="1" parent="1" source="DddSFmSaEvy10IUkVocP-6" target="DddSFmSaEvy10IUkVocP-15">
          <mxGeometry relative="1" as="geometry" />
        </mxCell>
        <mxCell id="DddSFmSaEvy10IUkVocP-6" value="Siguiendo los mismos pasos, encontrar incógnitas del sistema simulado en la tarea 1" style="whiteSpace=wrap;html=1;rounded=0;" vertex="1" parent="1">
          <mxGeometry x="355" y="490" width="130" height="70" as="geometry" />
        </mxCell>
        <mxCell id="DddSFmSaEvy10IUkVocP-8" value="Tensión en las barras&lt;span style=&quot;white-space: pre;&quot;&gt;&#x9;&lt;/span&gt;" style="whiteSpace=wrap;html=1;rounded=0;" vertex="1" parent="1">
          <mxGeometry x="640" y="450" width="120" height="60" as="geometry" />
        </mxCell>
        <mxCell id="DddSFmSaEvy10IUkVocP-10" value="Corrientes de línea" style="rounded=0;whiteSpace=wrap;html=1;" vertex="1" parent="1">
          <mxGeometry x="640" y="560" width="120" height="60" as="geometry" />
        </mxCell>
        <mxCell id="DddSFmSaEvy10IUkVocP-14" value="" style="endArrow=classic;html=1;rounded=0;entryX=0;entryY=0.5;entryDx=0;entryDy=0;" edge="1" parent="1" target="DddSFmSaEvy10IUkVocP-10">
          <mxGeometry width="50" height="50" relative="1" as="geometry">
            <mxPoint x="560" y="530" as="sourcePoint" />
            <mxPoint x="440" y="510" as="targetPoint" />
            <Array as="points">
              <mxPoint x="560" y="590" />
            </Array>
          </mxGeometry>
        </mxCell>
        <mxCell id="DddSFmSaEvy10IUkVocP-18" value="" style="edgeStyle=orthogonalEdgeStyle;rounded=0;orthogonalLoop=1;jettySize=auto;html=1;" edge="1" parent="1" source="DddSFmSaEvy10IUkVocP-15" target="DddSFmSaEvy10IUkVocP-17">
          <mxGeometry relative="1" as="geometry" />
        </mxCell>
        <mxCell id="DddSFmSaEvy10IUkVocP-22" value="" style="edgeStyle=orthogonalEdgeStyle;rounded=0;orthogonalLoop=1;jettySize=auto;html=1;" edge="1" parent="1" source="DddSFmSaEvy10IUkVocP-15" target="DddSFmSaEvy10IUkVocP-21">
          <mxGeometry relative="1" as="geometry" />
        </mxCell>
        <mxCell id="DddSFmSaEvy10IUkVocP-15" value="Realizar comparación entre los resultados obtenidos por la simulación y con el método de Newton-Raphson" style="whiteSpace=wrap;html=1;rounded=0;" vertex="1" parent="1">
          <mxGeometry x="330" y="640" width="180" height="75" as="geometry" />
        </mxCell>
        <mxCell id="DddSFmSaEvy10IUkVocP-17" value="¿Qué tan fieles son los resultados usando el método?" style="whiteSpace=wrap;html=1;rounded=0;" vertex="1" parent="1">
          <mxGeometry x="110" y="610" width="120" height="60" as="geometry" />
        </mxCell>
        <mxCell id="DddSFmSaEvy10IUkVocP-19" value="" style="endArrow=classic;html=1;rounded=0;" edge="1" parent="1">
          <mxGeometry width="50" height="50" relative="1" as="geometry">
            <mxPoint x="280" y="680" as="sourcePoint" />
            <mxPoint x="230" y="720" as="targetPoint" />
            <Array as="points">
              <mxPoint x="280" y="720" />
            </Array>
          </mxGeometry>
        </mxCell>
        <mxCell id="DddSFmSaEvy10IUkVocP-20" value="¿Cuántas iteraciones tomó?" style="whiteSpace=wrap;html=1;rounded=0;" vertex="1" parent="1">
          <mxGeometry x="110" y="690" width="120" height="60" as="geometry" />
        </mxCell>
        <mxCell id="DddSFmSaEvy10IUkVocP-21" value="Finalmente, se comparan ambos resultados con distinto grado de tolerancia" style="whiteSpace=wrap;html=1;rounded=0;" vertex="1" parent="1">
          <mxGeometry x="355" y="802.5" width="130" height="67.5" as="geometry" />
        </mxCell>
      </root>
    </mxGraphModel>
  </diagram>
</mxfile>
